<svg width="33" height="35" viewBox="0 0 33 35" fill="none" xmlns="http://www.w3.org/2000/svg">
<path d="M32.0536 1.32188H17.1651V0.579177C17.1662 0.502803 17.1523 0.426972 17.1243 0.356182C17.0963 0.285391 17.0546 0.221084 17.0018 0.167073C16.9491 0.113062 16.8862 0.0704493 16.817 0.0417614C16.7479 0.0130734 16.6738 -0.001105 16.5991 6.71781e-05H16.4307C16.2821 0.00234862 16.1403 0.0643675 16.036 0.172725C15.9317 0.281083 15.8733 0.427081 15.8733 0.579177V1.32188H0.969172C0.836711 1.32188 0.709675 1.37573 0.616011 1.47157C0.522347 1.56742 0.469727 1.69741 0.469727 1.83295V4.20875C0.469727 4.34429 0.522347 4.47428 0.616011 4.57012C0.709675 4.66597 0.836711 4.71981 0.969172 4.71981H1.80394C2.02858 8.16424 2.49384 11.5878 3.19616 14.9643C4.38888 20.6019 6.09237 24.8772 8.2755 27.7249H4.89257C4.85408 27.7251 4.81607 27.7338 4.78115 27.7503C4.74623 27.7669 4.71521 27.791 4.69023 27.821C4.66524 27.8509 4.64687 27.8861 4.63638 27.924C4.62588 27.9619 4.6235 28.0016 4.62941 28.0406C4.90106 29.8097 5.78535 32.2898 6.64275 33.6869C6.6664 33.7262 6.69949 33.7587 6.73886 33.7812C6.77824 33.8038 6.82259 33.8157 6.86772 33.8157H15.879V34.4484C15.879 34.8364 16.2284 34.9986 16.5086 35C16.7915 35 17.141 34.8378 17.141 34.4484V33.8157H26.1522C26.1974 33.8157 26.2417 33.8038 26.2811 33.7812C26.3205 33.7587 26.3536 33.7262 26.3772 33.6869C27.2346 32.2912 28.1189 29.8112 28.3905 28.0406C28.3965 28.0016 28.3941 27.9619 28.3836 27.924C28.3731 27.8861 28.3547 27.8509 28.3297 27.821C28.3047 27.791 28.2737 27.7669 28.2388 27.7503C28.2039 27.7338 28.1659 27.7251 28.1274 27.7249H24.7473C26.929 24.8772 28.6339 20.6019 29.8266 14.9643C30.5289 11.5878 30.9942 8.16424 31.2188 4.71981H32.0536C32.1192 4.71981 32.1841 4.70659 32.2447 4.68091C32.3053 4.65522 32.3604 4.61758 32.4068 4.57012C32.4532 4.52267 32.4899 4.46633 32.515 4.40432C32.5401 4.34232 32.5531 4.27586 32.5531 4.20875V1.83295C32.5531 1.76584 32.5401 1.69938 32.515 1.63737C32.4899 1.57537 32.4532 1.51903 32.4068 1.47157C32.3604 1.42412 32.3053 1.38647 32.2447 1.36079C32.1841 1.3351 32.1192 1.32188 32.0536 1.32188ZM9.55736 4.71981C9.58142 9.81742 9.91815 21.514 12.3602 27.7249H11.1024C7.01203 21.9078 6.00607 9.88402 5.7613 4.71981H9.55736ZM12.5866 28.2707C12.8788 28.9662 13.2507 29.6238 13.6944 30.2296C13.302 29.9997 12.9328 29.7305 12.5922 29.4261C12.1997 29.0724 11.8376 28.6849 11.5099 28.2679L12.5866 28.2707ZM11.0812 29.2697C11.0161 29.219 10.951 29.1684 10.8873 29.1162C10.5736 28.8518 10.2746 28.5695 9.99172 28.2707H10.3101C10.5476 28.6043 10.8017 28.9251 11.0713 29.2321C11.0737 29.2448 11.077 29.2574 11.0812 29.2697ZM2.78868 4.71981H4.76948C4.86852 6.86396 5.09631 10.1924 5.6184 13.7583C6.53664 20.0155 7.98829 24.6918 9.94928 27.7249H9.50643C4.73411 22.0641 3.15796 10.4776 2.78868 4.71981ZM7.01769 33.2685C6.27065 31.9959 5.50945 29.8908 5.2095 28.2707H8.71694C9.17341 28.817 9.67571 29.3213 10.2181 29.7779C10.616 30.111 11.039 30.4117 11.483 30.6769C11.715 31.3864 12.022 32.2261 12.4295 33.2685H7.01769ZM15.879 33.2685H13.004C12.663 32.3998 12.3899 31.6759 12.172 31.0476C13.3223 31.602 14.5792 31.8859 15.8507 31.8786H15.886L15.879 33.2685ZM15.879 30.8362C15.5476 30.7074 15.2456 30.5103 14.9918 30.2571C14.4839 29.7808 14.0354 29.0989 13.6378 28.2635H15.879V30.8362ZM15.879 11.0104V27.7249H13.393C10.9397 21.8817 10.5874 9.87099 10.5534 4.71981H15.879V11.0104ZM27.2615 4.71981C27.0167 9.88402 26.0108 21.9078 21.9204 27.7249H20.6626C23.1075 21.5125 23.4414 9.81742 23.4654 4.71981H27.2615ZM23.0296 28.2707C22.7468 28.5695 22.4478 28.8518 22.134 29.1162C22.0704 29.1684 22.0053 29.219 21.9402 29.2697C21.9402 29.2581 21.9473 29.2451 21.9501 29.2321C22.2197 28.9255 22.4733 28.6046 22.7099 28.2707H23.0296ZM21.5129 28.2707C21.1852 28.6878 20.823 29.0753 20.4306 29.429C20.09 29.7334 19.7208 30.0026 19.3284 30.2325C19.7721 29.6267 20.144 28.9691 20.4362 28.2736L21.5129 28.2707ZM17.1651 4.71981H22.4722C22.4382 9.87099 22.0831 21.8817 19.6326 27.7249H17.1438L17.1651 4.71981ZM17.1467 28.2707H19.3878C18.9902 29.1061 18.5389 29.788 18.0338 30.2643C17.78 30.5175 17.478 30.7146 17.1467 30.8434V28.2707ZM17.1467 33.2685V31.8786H17.182C18.4535 31.8859 19.7104 31.602 20.8607 31.0476C20.6428 31.6745 20.3697 32.3998 20.0287 33.2685H17.1467ZM27.8161 28.2707C27.5162 29.8908 26.7592 31.9901 26.0079 33.2685H20.5933C21.0007 32.2261 21.3078 31.3864 21.5398 30.6769C21.9838 30.4117 22.4067 30.111 22.8047 29.7779C23.3471 29.3213 23.8494 28.817 24.3058 28.2707H27.8161ZM23.5192 27.7249H23.0834C25.0373 24.6918 26.489 20.0155 27.4072 13.7583C27.8376 10.7618 28.1209 7.74525 28.2561 4.71981H30.2369C29.8677 10.4776 28.2887 22.0641 23.5164 27.7249H23.5192Z" fill="white"/>
</svg>
