<svg id="Layer_1" data-name="Layer 1" xmlns="http://www.w3.org/2000/svg" viewBox="0 0 500 500">
  <defs>
    <style>
      .cls-1 {
        fill: #fafafa;
      }

      .cls-2 {
        fill: #d32f2f;
      }

      .cls-3 {
        fill: #c7c7c7;
      }

      .cls-4 {
        fill: #01579b;
      }

      .cls-5 {
        fill: #fff;
      }

      .cls-6 {
        fill: #002f6c;
      }
    </style>
  </defs>
  <g>
    <circle class="cls-1" cx="250" cy="250" r="169.41"/>
    <g>
      <path class="cls-2" d="M250,340.38a104.27,104.27,0,0,1-53,14.37H116.84a169,169,0,0,1-28-52.53H197.71a52.34,52.34,0,0,0,13.46-1.75A105.24,105.24,0,0,0,250,340.38Z"/>
      <path class="cls-2" d="M301.77,250a104.13,104.13,0,0,1-13,50.58A52.3,52.3,0,0,1,250,250.34v-.68a52.26,52.26,0,0,0-52.29-52H88.83a169.1,169.1,0,0,1,28-52.4H197A104.7,104.7,0,0,1,301.77,250Z"/>
    </g>
    <g>
      <path class="cls-3" d="M411.2,197.78H302.28a52.32,52.32,0,0,0-13.45,1.75A105.24,105.24,0,0,0,250,159.62a104.27,104.27,0,0,1,53-14.37h80.17A168.8,168.8,0,0,1,411.2,197.78Z"/>
      <path class="cls-3" d="M411.16,302.35a168.89,168.89,0,0,1-28,52.4H303a104.78,104.78,0,0,1-91.75-155.33A52.31,52.31,0,0,1,250,249.66v.68a52.24,52.24,0,0,0,52.28,52Z"/>
    </g>
    <g>
      <path class="cls-4" d="M250,497.8A247.51,247.51,0,0,1,2.2,250a249.69,249.69,0,0,1,5.63-52.81A247.88,247.88,0,0,1,474.2,144.32a246,246,0,0,1,18,53,250.15,250.15,0,0,1,0,105.5,245.32,245.32,0,0,1-18,52.87A247.8,247.8,0,0,1,250,497.8Zm0-415a167.37,167.37,0,1,0,131.43,63.82A166.38,166.38,0,0,0,250,82.79Z"/>
      <path class="cls-5" d="M250,4.39A245.53,245.53,0,1,1,27.78,145.25,245.65,245.65,0,0,1,250,4.39m0,415a169.55,169.55,0,1,0-133.16-64.66A169.09,169.09,0,0,0,250,419.41M250,0A250,250,0,1,0,385.57,39.91,249.09,249.09,0,0,0,250,0Zm0,415a163.39,163.39,0,0,1-73.25-17.11A166.57,166.57,0,0,1,120.29,352a164.87,164.87,0,0,1,0-204.06,166.57,166.57,0,0,1,56.46-45.88,165.35,165.35,0,0,1,146.5,0A166.63,166.63,0,0,1,379.7,148a164.83,164.83,0,0,1,0,204.06,166.63,166.63,0,0,1-56.45,45.88A163.39,163.39,0,0,1,250,415Z"/>
    </g>
  </g>
  <g>
    <path class="cls-6" d="M69.55,387.43l-7.9-13a25.68,25.68,0,0,1-3.49-8.05,7.56,7.56,0,0,1,.69-5.45,8.3,8.3,0,0,1,4.24-3.31,30.21,30.21,0,0,1,7.19-1.73l8.37-1a40.62,40.62,0,0,1,8.1-.28,22.73,22.73,0,0,1,7.3,1.73,23,23,0,0,1,6.52,4.25,32.3,32.3,0,0,1,5.81,7.29L114.93,382l-6.33.79-5.87-9.68a13.54,13.54,0,0,0-2.24-2.86,8.32,8.32,0,0,0-2.79-1.76,11.73,11.73,0,0,0-3.75-.73,29.57,29.57,0,0,0-5.11.25l-12.72,1.63q-4.73.57-6.33,2.44t.65,5.59l5.42,8.94Z"/>
    <path class="cls-6" d="M87.8,409.18a24.35,24.35,0,0,1-5-6.85,8.28,8.28,0,0,1-.62-5.55,8.44,8.44,0,0,1,3.21-4.38,24.66,24.66,0,0,1,6.49-3.33l8.76-3.16a34.74,34.74,0,0,1,7.94-1.92,24,24,0,0,1,7.75.38,25.77,25.77,0,0,1,7.59,3,34.22,34.22,0,0,1,7.39,5.95l5.66,5.86a24.58,24.58,0,0,1,5,6.89,8.36,8.36,0,0,1,.63,5.53,8.12,8.12,0,0,1-3.2,4.33,26.14,26.14,0,0,1-6.56,3.36l-8.75,3.15a35.72,35.72,0,0,1-7.88,1.91,24.25,24.25,0,0,1-7.74-.32,25.33,25.33,0,0,1-7.61-3,35,35,0,0,1-7.45-6Zm8.69.68a10.54,10.54,0,0,0,6.27,3.26q3.63.51,9.1-1.47l10.77-3.9a24.78,24.78,0,0,0,4.9-2.24,6.06,6.06,0,0,0,2.29-2.25,2.79,2.79,0,0,0,.08-2.33,8.16,8.16,0,0,0-1.79-2.56,13.62,13.62,0,0,0-2.54-2.09,8.36,8.36,0,0,0-3.11-1.14,13.25,13.25,0,0,0-4.1.07,30.75,30.75,0,0,0-5.59,1.58l-11.18,4Q96.16,402.79,95,405C94.29,406.47,94.78,408.09,96.49,409.86Z"/>
    <path class="cls-6" d="M170,434.19a14.16,14.16,0,0,0,2.82-2.46,2.8,2.8,0,0,0,.77-1.79,2,2,0,0,0-.73-1.38,10.94,10.94,0,0,0-1.62-1.17L163.93,423,131.87,445.6l-13.24-7.92,37.29-26.23,26.57,15.89a19.86,19.86,0,0,1,4.85,3.77,5.07,5.07,0,0,1,1.44,3.72,6.86,6.86,0,0,1-2,4,34.51,34.51,0,0,1-5.51,4.65L157,460.59l-13.24-7.91Z"/>
    <path class="cls-6" d="M220.08,449.82a14.4,14.4,0,0,0,2.06-3.11,2.72,2.72,0,0,0,.27-1.93,2,2,0,0,0-1.06-1.14,11,11,0,0,0-1.88-.7l-8.18-2.27-24.93,30.26-14.87-4.13,29-35.18,29.84,8.28a20,20,0,0,1,5.67,2.35,5.1,5.1,0,0,1,2.38,3.21,6.89,6.89,0,0,1-.89,4.4,34.21,34.21,0,0,1-4.08,5.94l-18.89,22.94-14.86-4.13Z"/>
    <path class="cls-6" d="M247.7,475l20,.64L265,481.42l-35.45-1.13,19.85-41,35.51,1.13-2.78,5.75-20.1-.64-5.81,12,17.44.55-2.6,5.35-17.44-.55Z"/>
    <path class="cls-6" d="M309.41,474.64l-15,2.58a25.7,25.7,0,0,1-8.77.3,7.55,7.55,0,0,1-4.82-2.63,8.36,8.36,0,0,1-1.52-5.16,29.88,29.88,0,0,1,1-7.33l2.12-8.16a40.16,40.16,0,0,1,2.7-7.64,22.8,22.8,0,0,1,4.28-6.16,23.21,23.21,0,0,1,6.35-4.51,32.25,32.25,0,0,1,8.91-2.73l16.28-2.79-1.58,6.19-11.15,1.91a13.54,13.54,0,0,0-3.49,1,8.39,8.39,0,0,0-2.66,1.95,11.89,11.89,0,0,0-2.05,3.22,29.42,29.42,0,0,0-1.63,4.85L295.23,462q-1.2,4.61,0,6.78t5.44,1.44l10.3-1.77Z"/>
    <path class="cls-6" d="M318.77,427.31l36.21-14-.32,6.38-10.84,4.18-2,39.16-14.44,5.58,2-39.16-10.94,4.23Z"/>
    <path class="cls-6" d="M355.86,408.46l13.29-7.83,5.17,45.3L361,453.76Z"/>
    <path class="cls-6" d="M400.13,427.15a24.11,24.11,0,0,1-7.05,4.68,8.22,8.22,0,0,1-5.57.38,8.38,8.38,0,0,1-4.24-3.38,24.77,24.77,0,0,1-3.06-6.62l-2.79-8.89a34.44,34.44,0,0,1-1.59-8,24,24,0,0,1,.7-7.73,26,26,0,0,1,3.31-7.46,34.54,34.54,0,0,1,6.25-7.14l6.1-5.4a24.25,24.25,0,0,1,7.09-4.72,8.37,8.37,0,0,1,5.55-.41,8.1,8.1,0,0,1,4.19,3.38,26.46,26.46,0,0,1,3.09,6.69l2.78,8.88a35.53,35.53,0,0,1,1.58,8,24.46,24.46,0,0,1-.64,7.72,25.23,25.23,0,0,1-3.29,7.48,34.86,34.86,0,0,1-6.32,7.19Zm1-8.65a10.58,10.58,0,0,0,3.52-6.14q.66-3.6-1.09-9.14l-3.45-10.93a24.78,24.78,0,0,0-2-5,6.07,6.07,0,0,0-2.16-2.38,2.77,2.77,0,0,0-2.32-.18,8.3,8.3,0,0,0-2.64,1.69,13.81,13.81,0,0,0-2.19,2.44,8.41,8.41,0,0,0-1.26,3.06,12.83,12.83,0,0,0-.1,4.11,30.25,30.25,0,0,0,1.34,5.64L392.37,413q1.72,5.5,3.88,6.72T401.17,418.5Z"/>
    <path class="cls-6" d="M428.54,346.08a14.58,14.58,0,0,0-2.33-2.92,2.81,2.81,0,0,0-1.77-.84,2,2,0,0,0-1.4.67,10.48,10.48,0,0,0-1.24,1.57l-4.66,7.1,21.2,33-8.46,12.89-24.65-38.35,17-25.89a19.93,19.93,0,0,1,4-4.68,5.08,5.08,0,0,1,3.78-1.29,6.87,6.87,0,0,1,3.91,2.19,33.47,33.47,0,0,1,4.42,5.7l16.08,25-8.46,12.89Z"/>
  </g>
  <g>
    <path class="cls-6" d="M183.11,83.78,190,38.72l23.57-6.45a30.38,30.38,0,0,1,9.4-1.34,10,10,0,0,1,5.88,1.89,7.89,7.89,0,0,1,2.72,4.8,22,22,0,0,1,0,7.34l-1.32,8.33a27.54,27.54,0,0,1-2.43,8,26.52,26.52,0,0,1-4.8,6.85,31.22,31.22,0,0,1-7.29,5.53,44,44,0,0,1-10,4ZM205.3,71.66A10.8,10.8,0,0,0,212,66.77a26.16,26.16,0,0,0,3.11-9.54l1.18-7.74a33.61,33.61,0,0,0,.4-5.2,8.42,8.42,0,0,0-.7-3.56A3.24,3.24,0,0,0,214,39a7,7,0,0,0-3.63.22L203.91,41l-5,32.46Z"/>
    <path class="cls-6" d="M248.12,29.54l15.38-1.08L247.92,71.3l-15.39,1.08Z"/>
    <path class="cls-6" d="M307.72,39.84l-13.45-1.32a12.09,12.09,0,0,0-5.51.76,9,9,0,0,0-4.56,4.17A14.12,14.12,0,0,0,283,46.14a2.63,2.63,0,0,0,0,1.86,2.39,2.39,0,0,0,1.39,1.18,11.24,11.24,0,0,0,3,.61,35.12,35.12,0,0,1,6,1,14.38,14.38,0,0,1,3.79,1.56,5.22,5.22,0,0,1,2,2,4.86,4.86,0,0,1,.5,2.29A7.24,7.24,0,0,1,299,59.1a22.14,22.14,0,0,1-1.2,2.52L297,62.94a19.21,19.21,0,0,1-4.36,5.4,16.82,16.82,0,0,1-5.62,3.08,25.83,25.83,0,0,1-7,1.17,61.57,61.57,0,0,1-8.48-.31l-18.45-1.81,3.1-5.56,13.91,1.37a14.26,14.26,0,0,0,6.9-.78A10.67,10.67,0,0,0,282,60.65q1.89-3.36,1.36-4.69c-.36-.88-1.61-1.43-3.76-1.64a34.69,34.69,0,0,1-8.43-1.65A7.81,7.81,0,0,1,267.22,50a4.32,4.32,0,0,1-.55-3.56,16.51,16.51,0,0,1,1.81-4.29l.5-.88a16.13,16.13,0,0,1,9.14-7.7q5.85-1.92,14.42-1.07l18.34,1.8Z"/>
    <path class="cls-6" d="M325.61,85.16,311.06,80.6a25.73,25.73,0,0,1-7.94-3.73A7.59,7.59,0,0,1,300,72.33,8.34,8.34,0,0,1,301,67,29.7,29.7,0,0,1,305.29,61l5.6-6.3a40.71,40.71,0,0,1,5.9-5.56,22.58,22.58,0,0,1,6.61-3.53,22.92,22.92,0,0,1,7.71-1.12,32.37,32.37,0,0,1,9.17,1.63l15.77,4.94-4.23,4.79L341,52.46a13.48,13.48,0,0,0-3.58-.67,8.49,8.49,0,0,0-3.25.52,12.17,12.17,0,0,0-3.3,1.93,29.4,29.4,0,0,0-3.66,3.58l-8.47,9.63q-3.18,3.55-3.13,6c0,1.65,1.42,2.9,4.18,3.77l10,3.12Z"/>
  </g>
  <g>
    <path class="cls-1" d="M66.22,382.1l-7.9-13.05A25.26,25.26,0,0,1,54.83,361a7.49,7.49,0,0,1,.68-5.44,8.44,8.44,0,0,1,4.25-3.32A30,30,0,0,1,67,350.52l8.37-1a39.88,39.88,0,0,1,8.1-.28A22.41,22.41,0,0,1,90.71,351a22.87,22.87,0,0,1,6.53,4.25,32.28,32.28,0,0,1,5.8,7.29l8.56,14.13-6.34.8-5.86-9.68a14,14,0,0,0-2.24-2.87,8.56,8.56,0,0,0-2.79-1.75,12,12,0,0,0-3.75-.74,30.68,30.68,0,0,0-5.11.26l-12.73,1.63c-3.15.37-5.25,1.19-6.32,2.44s-.85,3.12.65,5.59l5.42,8.94Z"/>
    <path class="cls-1" d="M84.46,403.84a24.12,24.12,0,0,1-5-6.84,8.28,8.28,0,0,1-.62-5.55,8.42,8.42,0,0,1,3.2-4.38,24.74,24.74,0,0,1,6.5-3.33l8.76-3.16a33.61,33.61,0,0,1,7.94-1.92A23.74,23.74,0,0,1,113,379a26.24,26.24,0,0,1,7.59,3,34.59,34.59,0,0,1,7.39,6l5.66,5.86a24.18,24.18,0,0,1,5,6.89,8.3,8.3,0,0,1,.64,5.53,8.12,8.12,0,0,1-3.2,4.33,26.31,26.31,0,0,1-6.56,3.36l-8.76,3.15a35.64,35.64,0,0,1-7.87,1.91,24.23,24.23,0,0,1-7.74-.33,25,25,0,0,1-7.61-3,35.1,35.1,0,0,1-7.45-6Zm8.69.69a10.65,10.65,0,0,0,6.28,3.26q3.63.51,9.09-1.48l10.78-3.89a24.78,24.78,0,0,0,4.9-2.24,6.2,6.2,0,0,0,2.29-2.25,2.83,2.83,0,0,0,.08-2.33,8.21,8.21,0,0,0-1.8-2.56,13.56,13.56,0,0,0-2.53-2.09,8.43,8.43,0,0,0-3.11-1.14,13,13,0,0,0-4.1.07,30,30,0,0,0-5.59,1.58l-11.18,4.05q-5.43,2-6.55,4.15C91,401.13,91.44,402.76,93.15,404.53Z"/>
    <path class="cls-1" d="M166.65,428.86a14.8,14.8,0,0,0,2.82-2.46,2.86,2.86,0,0,0,.77-1.79,2.06,2.06,0,0,0-.73-1.38,10.26,10.26,0,0,0-1.62-1.17l-7.29-4.36-32.07,22.56-13.23-7.91,37.29-26.24L179.16,422a20.31,20.31,0,0,1,4.85,3.77,5.11,5.11,0,0,1,1.44,3.73,6.9,6.9,0,0,1-2,4,33.92,33.92,0,0,1-5.51,4.65l-24.29,17.11-13.25-7.91Z"/>
    <path class="cls-1" d="M216.75,444.49a14.4,14.4,0,0,0,2.06-3.11,2.86,2.86,0,0,0,.27-1.94,2,2,0,0,0-1.07-1.13,10.15,10.15,0,0,0-1.87-.7L208,435.34,183,465.59l-14.86-4.12,29-35.18L227,434.56a20,20,0,0,1,5.67,2.36,5.15,5.15,0,0,1,2.38,3.2,6.94,6.94,0,0,1-.89,4.4,33.86,33.86,0,0,1-4.08,6L211.19,473.4l-14.86-4.12Z"/>
    <path class="cls-1" d="M244.37,469.7l20,.63-2.72,5.75L226.23,475l19.85-41L281.59,435l-2.79,5.75-20.09-.63-5.81,12,17.44.55-2.6,5.35-17.44-.55Z"/>
    <path class="cls-1" d="M306.08,469.31l-15,2.58a25.7,25.7,0,0,1-8.77.3,7.56,7.56,0,0,1-4.82-2.64,8.36,8.36,0,0,1-1.53-5.15,30.37,30.37,0,0,1,1-7.33l2.12-8.16a40.62,40.62,0,0,1,2.71-7.64,22.58,22.58,0,0,1,4.28-6.16,22.94,22.94,0,0,1,6.34-4.51,32.47,32.47,0,0,1,8.91-2.73l16.29-2.79L316,431.27l-11.16,1.91a13.46,13.46,0,0,0-3.48,1,8.39,8.39,0,0,0-2.66,1.95,11.89,11.89,0,0,0-2.05,3.22,29.1,29.1,0,0,0-1.63,4.85l-3.15,12.44c-.8,3.07-.82,5.32,0,6.77s2.59,1.93,5.43,1.45l10.31-1.77Z"/>
    <path class="cls-1" d="M315.43,422l36.22-14-.33,6.38-10.83,4.18-2,39.16-14.45,5.58,2-39.16-10.94,4.23Z"/>
    <path class="cls-1" d="M352.53,403.13l13.29-7.83L371,440.6l-13.29,7.83Z"/>
    <path class="cls-1" d="M396.8,421.82a24.11,24.11,0,0,1-7.05,4.68,8.22,8.22,0,0,1-5.57.38,8.34,8.34,0,0,1-4.24-3.38,24.69,24.69,0,0,1-3.07-6.63L374.09,408a33.43,33.43,0,0,1-1.59-8,24,24,0,0,1,.7-7.73,26,26,0,0,1,3.31-7.46,34.54,34.54,0,0,1,6.25-7.14l6.09-5.41a24.42,24.42,0,0,1,7.1-4.71,8.28,8.28,0,0,1,5.54-.41,8.15,8.15,0,0,1,4.2,3.38,26,26,0,0,1,3.08,6.69l2.79,8.88a36.1,36.1,0,0,1,1.58,7.95,24.18,24.18,0,0,1-.65,7.72,24.94,24.94,0,0,1-3.28,7.48,35.16,35.16,0,0,1-6.32,7.19Zm1-8.65a10.66,10.66,0,0,0,3.52-6.14q.66-3.6-1.1-9.15L396.82,387a24.48,24.48,0,0,0-2-5,6.06,6.06,0,0,0-2.15-2.38,2.77,2.77,0,0,0-2.32-.18,8.21,8.21,0,0,0-2.64,1.68,14.22,14.22,0,0,0-2.19,2.45,8.41,8.41,0,0,0-1.26,3.06,12.5,12.5,0,0,0-.1,4.1,29.38,29.38,0,0,0,1.34,5.65L389,407.69q1.72,5.51,3.88,6.72C394.36,415.22,396,414.8,397.84,413.17Z"/>
    <path class="cls-1" d="M425.21,340.75a14.61,14.61,0,0,0-2.34-2.92,2.77,2.77,0,0,0-1.76-.84,2,2,0,0,0-1.4.67,9.88,9.88,0,0,0-1.24,1.57l-4.66,7.1,21.2,33-8.46,12.89L401.9,353.85l17-25.89a19.76,19.76,0,0,1,4-4.68,5.07,5.07,0,0,1,3.77-1.29,6.86,6.86,0,0,1,3.92,2.19,33.47,33.47,0,0,1,4.42,5.7l16.08,25-8.46,12.9Z"/>
  </g>
  <g>
    <path class="cls-1" d="M179.77,78.45l6.9-45.07,23.57-6.44a30.68,30.68,0,0,1,9.39-1.35,10.06,10.06,0,0,1,5.88,1.9,7.8,7.8,0,0,1,2.72,4.8,21.71,21.71,0,0,1,0,7.34L226.89,48a27.82,27.82,0,0,1-2.43,8,26.69,26.69,0,0,1-4.8,6.85,31.07,31.07,0,0,1-7.3,5.53,43.92,43.92,0,0,1-10,4ZM202,66.33a10.8,10.8,0,0,0,6.72-4.89,26.35,26.35,0,0,0,3.11-9.54L213,44.16a32.66,32.66,0,0,0,.41-5.21,8.53,8.53,0,0,0-.7-3.55,3.26,3.26,0,0,0-2.07-1.74,7,7,0,0,0-3.62.21l-6.41,1.76-5,32.45Z"/>
    <path class="cls-1" d="M244.78,24.2l15.39-1.08L244.59,66,229.2,67.05Z"/>
    <path class="cls-1" d="M304.38,34.51l-13.45-1.32a11.93,11.93,0,0,0-5.5.76,9,9,0,0,0-4.56,4.17,13.52,13.52,0,0,0-1.25,2.69,2.63,2.63,0,0,0,0,1.86A2.36,2.36,0,0,0,281,43.85a11.67,11.67,0,0,0,3,.61,36.3,36.3,0,0,1,6,1,14.65,14.65,0,0,1,3.8,1.57,5.05,5.05,0,0,1,1.95,2,4.7,4.7,0,0,1,.5,2.28,7.27,7.27,0,0,1-.53,2.48,21.39,21.39,0,0,1-1.21,2.52l-.76,1.32a19.35,19.35,0,0,1-4.37,5.4,16.85,16.85,0,0,1-5.61,3.08,25.84,25.84,0,0,1-7,1.17,63,63,0,0,1-8.47-.31l-18.45-1.82,3.1-5.56,13.91,1.37a14.27,14.27,0,0,0,6.9-.77,10.64,10.64,0,0,0,4.91-4.86Q280.56,52,280,50.63T276.26,49a34.76,34.76,0,0,1-8.43-1.64,7.9,7.9,0,0,1-3.95-2.68,4.33,4.33,0,0,1-.54-3.57,16.44,16.44,0,0,1,1.81-4.29l.49-.88a16.16,16.16,0,0,1,9.15-7.69q5.85-1.92,14.41-1.08L307.54,29Z"/>
    <path class="cls-1" d="M322.28,79.83l-14.55-4.56a25.38,25.38,0,0,1-7.94-3.74A7.52,7.52,0,0,1,296.7,67a8.38,8.38,0,0,1,1-5.28A30.23,30.23,0,0,1,302,55.66l5.61-6.3a40.74,40.74,0,0,1,5.89-5.57,22.73,22.73,0,0,1,6.62-3.52,23.09,23.09,0,0,1,7.71-1.13A32.41,32.41,0,0,1,337,40.78l15.76,4.94-4.22,4.79-10.81-3.39a13.7,13.7,0,0,0-3.57-.66,8.3,8.3,0,0,0-3.25.52,12.17,12.17,0,0,0-3.3,1.93,29.4,29.4,0,0,0-3.66,3.58l-8.48,9.63c-2.11,2.36-3.15,4.37-3.12,6s1.42,2.9,4.18,3.76l10,3.13Z"/>
  </g>
</svg>
