<svg width="62" height="62" viewBox="0 0 62 62" fill="none" xmlns="http://www.w3.org/2000/svg">
<path d="M61.8779 30.8598C61.8779 13.9061 48.1311 0.170898 31.1889 0.170898C14.2352 0.170898 0.5 13.9061 0.5 30.8598C0.5 46.1736 11.7187 58.8711 26.3938 61.1709V39.7328H18.6007V30.8617H26.3938V24.0968C26.3938 16.4073 30.9684 12.1607 37.9808 12.1607C41.3393 12.1607 44.8551 12.7591 44.8551 12.7591V20.3105H40.9787C37.1733 20.3105 35.9841 22.6793 35.9841 25.1057V30.8598H44.4945L43.1269 39.7308H35.9841V61.169C50.6476 58.8692 61.8779 46.1717 61.8779 30.8579V30.8598Z" fill="white"/>
</svg>
