<svg width="62" height="62" viewBox="0 0 62 62" fill="none" xmlns="http://www.w3.org/2000/svg">
<path d="M31.0254 23.4081C29.5891 23.4086 28.1851 23.835 26.9911 24.6334C25.7971 25.4318 24.8667 26.5663 24.3174 27.8934C23.7681 29.2206 23.6246 30.6808 23.9052 32.0895C24.1857 33.4981 24.8777 34.792 25.8935 35.8074C26.9093 36.8229 28.2034 37.5143 29.6122 37.7944C31.021 38.0744 32.4812 37.9304 33.8081 37.3806C35.135 36.8308 36.2692 35.8999 37.0671 34.7056C37.865 33.5113 38.2909 32.1072 38.2909 30.6709C38.2895 28.7447 37.5235 26.8978 36.1611 25.5359C34.7988 24.1741 32.9516 23.4088 31.0254 23.4081ZM48.006 17.8255C47.6363 16.8885 47.0779 16.0375 46.3657 15.3252C45.6534 14.6129 44.8023 14.0546 43.8653 13.6848C41.006 12.5561 34.1979 12.8093 31.0254 12.8093C27.8528 12.8093 21.0516 12.5465 18.1841 13.6848C17.2471 14.0546 16.396 14.6129 15.6838 15.3252C14.9715 16.0375 14.4132 16.8885 14.0434 17.8255C12.916 20.6849 13.1679 27.4997 13.1679 30.6695C13.1679 33.8394 12.916 40.646 14.0489 43.5149C14.4186 44.4519 14.9769 45.303 15.6892 46.0153C16.4015 46.7275 17.2525 47.2859 18.1895 47.6556C21.0489 48.7844 27.8569 48.5311 31.0308 48.5311C34.2047 48.5311 41.0032 48.7939 43.8708 47.6556C44.8078 47.2859 45.6588 46.7275 46.3711 46.0153C47.0834 45.303 47.6417 44.4519 48.0114 43.5149C49.1484 40.6556 48.887 33.8407 48.887 30.6709C48.887 27.5011 49.1484 20.6958 48.0114 17.8269L48.006 17.8255ZM31.0254 41.8361C28.8171 41.8361 26.6585 41.1813 24.8223 39.9544C22.9862 38.7276 21.5552 36.9838 20.7101 34.9436C19.865 32.9035 19.6439 30.6585 20.0747 28.4927C20.5056 26.3268 21.5689 24.3374 23.1304 22.7759C24.6919 21.2144 26.6813 20.1511 28.8472 19.7203C31.013 19.2894 33.258 19.5106 35.2981 20.3556C37.3383 21.2007 39.0821 22.6318 40.3089 24.4679C41.5357 26.304 42.1906 28.4626 42.1906 30.6709C42.1924 32.1376 41.9048 33.5903 41.3443 34.9457C40.7839 36.3012 39.9615 37.5327 38.9244 38.5699C37.8872 39.607 36.6557 40.4294 35.3002 40.9898C33.9448 41.5503 32.4921 41.8379 31.0254 41.8361ZM42.6508 21.6434C42.1353 21.6437 41.6313 21.4911 41.2025 21.2049C40.7738 20.9187 40.4395 20.5118 40.2421 20.0356C40.0446 19.5594 39.9928 19.0354 40.0932 18.5297C40.1936 18.0241 40.4417 17.5596 40.8061 17.195C41.1706 16.8304 41.6349 16.5821 42.1405 16.4814C42.6461 16.3807 43.1702 16.4322 43.6464 16.6295C44.1227 16.8267 44.5298 17.1607 44.8162 17.5893C45.1027 18.0179 45.2555 18.5218 45.2555 19.0373C45.257 19.3797 45.1908 19.7189 45.0608 20.0356C44.9309 20.3523 44.7397 20.6402 44.4982 20.8828C44.2567 21.1255 43.9697 21.318 43.6536 21.4495C43.3375 21.581 42.9986 21.6487 42.6562 21.6489L42.6508 21.6434ZM54.9897 0.170898H7.0611C5.32773 0.170898 3.66534 0.859481 2.43966 2.08517C1.21397 3.31085 0.525391 4.97323 0.525391 6.70661L0.525391 54.6352C0.525391 56.3686 1.21397 58.0309 2.43966 59.2566C3.66534 60.4823 5.32773 61.1709 7.0611 61.1709H54.9897C56.7231 61.1709 58.3854 60.4823 59.6111 59.2566C60.8368 58.0309 61.5254 56.3686 61.5254 54.6352V6.70661C61.5254 4.97323 60.8368 3.31085 59.6111 2.08517C58.3854 0.859481 56.7231 0.170898 54.9897 0.170898ZM52.6586 39.6575C52.483 43.1473 51.6864 46.2395 49.1389 48.7803C46.5913 51.321 43.5018 52.1339 40.0161 52.3C36.4201 52.5029 25.6389 52.5029 22.0429 52.3C18.5531 52.1244 15.4718 51.3265 12.9201 48.7803C10.3684 46.2341 9.56646 43.1405 9.40035 39.6575C9.19747 36.0601 9.19747 25.2776 9.40035 21.6843C9.57599 18.1945 10.363 15.1023 12.9201 12.5615C15.4772 10.0208 18.5667 9.21742 22.0429 9.0513C25.6389 8.84842 36.4201 8.84842 40.0161 9.0513C43.5059 9.22695 46.5967 10.0248 49.1389 12.5711C51.681 15.1173 52.4925 18.2108 52.6586 21.7006C52.8615 25.2844 52.8615 36.0574 52.6586 39.6575Z" fill="white"/>
</svg>
