<svg width="62" height="43" viewBox="0 0 62 43" fill="none" xmlns="http://www.w3.org/2000/svg">
<path d="M60.2766 6.89563C59.552 4.32331 57.546 2.30588 54.9623 1.59272C50.2047 0.320862 31.0792 0.320862 31.0792 0.320862C31.0792 0.320862 11.9899 0.290352 7.18272 1.59272C4.61231 2.30778 2.59679 4.32331 1.87982 6.89563C0.977883 11.7714 0.529777 16.7063 0.550752 21.6641C0.541218 26.5894 0.987418 31.5167 1.87982 36.3619C2.59679 38.9343 4.61231 40.9517 7.18272 41.6763C11.9403 42.9482 31.0792 42.9482 31.0792 42.9482C31.0792 42.9482 50.1571 42.9482 54.9623 41.6763C57.546 40.9517 59.552 38.9362 60.2766 36.3619C61.1519 31.5167 61.579 26.5894 61.5485 21.6641C61.579 16.7063 61.1614 11.7714 60.2766 6.89563V6.89563ZM24.9697 30.7921V12.496L40.8898 21.6641L24.9697 30.7921Z" fill="white"/>
</svg>
